# xmcd
#
# Track frame offsets:
#	150
#	922
#	16605
#	32092
#	50137
#	72830
#	90222
#	113722
#	127155
#	143552
#	160870
#	178102
#	198842
#	213747
#	234240
#	250720
#	275075
#	284937
#
# Disc length: 4063 seconds
#
# Revision: 0
# Processed by: cddbd v1.5.2PL0 Copyright (c) Steve Scherf et al.
# Submitted via: dBpowerAMP V4.0
#
DISCID=f90fdd12
DTITLE=T-Mack - Out Tha Frame
DYEAR=2000
DGENRE=Gangsta rap
TTITLE0=Intro
TTITLE1=It's On
TTITLE2=What You Hatin 4{feat.Lil Pee Wee}
TTITLE3=Out Tha Frame{feat.Lil hay}
TTITLE4=Keep It Real{Blackout and Bigg Baby}
TTITLE5=Blunt Smoker
TTITLE6=Hard Time In Smokey City{feat.Bigg Baby}
TTITLE7=Dollar ready
TTITLE8=Don't Step In My Way
TTITLE9=Eni Meenie
TTITLE10=Baby Girl Down{feat. Lil Hey}
TTITLE11=Forever The Man{feat.Lil hey}
TTITLE12=Watch Your Homies
TTITLE13=What Would You Do?
TTITLE14=We Too Wild{feat.So Serious,AK}
TTITLE15=Stress{feat.Mr.Sche,Pimp Minister}
TTITLE16=What's Your Name
TTITLE17=Serenity{feat.Lil Hey}
EXTD=
EXTT0=
EXTT1=
EXTT2=
EXTT3=
EXTT4=
EXTT5=
EXTT6=
EXTT7=
EXTT8=
EXTT9=
EXTT10=
EXTT11=
EXTT12=
EXTT13=
EXTT14=
EXTT15=
EXTT16=
EXTT17=
PLAYORDER=
